<svg width="72" height="76" viewBox="0 0 72 76" fill="none" xmlns="http://www.w3.org/2000/svg">
<path d="M71.0804 46.6434L64.6207 42.9132C65.2727 39.3952 65.2727 35.7863 64.6207 32.2683L71.0804 28.5381C71.8234 28.1135 72.157 27.234 71.9144 26.4152C70.2312 21.0169 67.3653 16.1342 63.6199 12.0704C63.0436 11.4487 62.1035 11.297 61.3756 11.7216L54.9159 15.4519C52.2017 13.1167 49.078 11.3122 45.6965 10.1294V2.6841C45.6965 1.83494 45.1051 1.09192 44.2711 0.909959C38.706 -0.333457 33.0045 -0.272803 27.7124 0.909959C26.8784 1.09192 26.2871 1.83494 26.2871 2.6841V10.1446C22.9207 11.3425 19.797 13.147 17.0676 15.467L10.623 11.7368C9.88002 11.3122 8.95504 11.4487 8.37882 12.0855C4.63341 16.1342 1.76749 21.0169 0.0843278 26.4303C-0.173454 27.2492 0.175309 28.1286 0.918326 28.5532L7.37803 32.2835C6.72599 35.8014 6.72599 39.4104 7.37803 42.9283L0.918326 46.6586C0.175309 47.0832 -0.15829 47.9626 0.0843278 48.7815C1.76749 54.1797 4.63341 59.0624 8.37882 63.1263C8.95504 63.748 9.89518 63.8996 10.623 63.475L17.0827 59.7448C19.797 62.08 22.9207 63.8844 26.3022 65.0672V72.5277C26.3022 73.3769 26.8936 74.1199 27.7276 74.3018C33.2926 75.5453 38.9942 75.4846 44.2863 74.3018C45.1203 74.1199 45.7116 73.3769 45.7116 72.5277V65.0672C49.078 63.8693 52.2017 62.0648 54.9311 59.7448L61.3908 63.475C62.1338 63.8996 63.0588 63.7631 63.635 63.1263C67.3804 59.0776 70.2464 54.1949 71.9295 48.7815C72.157 47.9475 71.8234 47.068 71.0804 46.6434ZM35.9918 55.7871C26.2871 55.7871 17.7954 48.7815 17.7954 37.5907C17.7954 26.4 26.2871 19.3944 35.9918 19.3944C42.6789 19.3944 54.1881 24.9441 54.1881 37.5907C54.1881 46.6586 47.3105 55.7871 35.9918 55.7871Z" fill="#FD747B"/>
<path d="M20.0766 39.0606H30.5933L32.8952 43.6614C33.3872 44.6449 34.7884 44.6449 35.2804 43.6614L39.4254 35.3766L41.2685 39.0606H51.435C52.1689 39.0606 52.7694 38.4605 52.7694 37.727C52.7694 36.9936 52.1689 36.3935 51.435 36.3935H42.9198L40.618 31.7927C40.126 30.8092 38.7248 30.8092 38.2328 31.7927L34.0878 40.0775L32.4281 36.7602C32.3114 36.5352 32.0862 36.3935 31.8277 36.3935H20.0766C19.7097 36.3935 19.4094 36.6935 19.4094 37.0603V38.3938C19.4094 38.7606 19.7097 39.0606 20.0766 39.0606Z" fill="#27323A"/>
</svg>
