<svg width="257" height="80" viewBox="0 0 257 80" fill="none" xmlns="http://www.w3.org/2000/svg">
<path d="M75.6055 49.6129L68.7346 45.6451C69.4281 41.9032 69.4281 38.0645 68.7346 34.3226L75.6055 30.3549C76.3958 29.9033 76.7507 28.9678 76.4926 28.0968C74.7023 22.3549 71.6539 17.1614 67.6701 12.8388C67.0572 12.1775 66.0572 12.0162 65.283 12.4678L58.412 16.4356C55.525 13.9517 52.2024 12.0324 48.6056 10.7743V2.85498C48.6056 1.95176 47.9766 1.16144 47.0895 0.967889C41.1702 -0.354686 35.1057 -0.29017 29.4767 0.967889C28.5896 1.16144 27.9606 1.95176 27.9606 2.85498V10.7904C24.3799 12.0646 21.0574 13.984 18.1541 16.4517L11.2993 12.484C10.509 12.0324 9.52514 12.1775 8.91224 12.8549C4.92839 17.1614 1.88001 22.3549 0.0896963 28.1129C-0.184496 28.9839 0.18647 29.9194 0.97679 30.371L7.84773 34.3387C7.15418 38.0807 7.15418 41.9193 7.84773 45.6613L0.97679 49.629C0.18647 50.0806 -0.168367 51.0161 0.0896963 51.887C1.88001 57.629 4.92839 62.8225 8.91224 67.1451C9.52514 67.8063 10.5251 67.9676 11.2993 67.516L18.1703 63.5483C21.0574 66.0322 24.3799 67.9515 27.9767 69.2096V77.145C27.9767 78.0482 28.6057 78.8386 29.4928 79.0321C35.4121 80.3547 41.4766 80.2902 47.1056 79.0321C47.9927 78.8386 48.6218 78.0482 48.6218 77.145V69.2096C52.2024 67.9354 55.525 66.016 58.4282 63.5483L65.2991 67.516C66.0894 67.9676 67.0733 67.8225 67.6862 67.1451C71.6701 62.8386 74.7184 57.6451 76.5088 51.887C76.7507 51 76.3958 50.0645 75.6055 49.6129ZM38.2831 59.3386C27.9606 59.3386 18.9283 51.887 18.9283 39.9839C18.9283 28.0807 27.9606 20.6291 38.2831 20.6291C45.396 20.6291 57.6379 26.5322 57.6379 39.9839C57.6379 49.629 50.3224 59.3386 38.2831 59.3386Z" fill="#FD747B"/>
<path d="M21.3548 41.5473H32.541L34.9894 46.441C35.5128 47.4871 37.0031 47.4871 37.5265 46.441L41.9353 37.6288L43.8958 41.5473H54.7095C55.4901 41.5473 56.1288 40.909 56.1288 40.1289C56.1288 39.3487 55.4901 38.7104 54.7095 38.7104H45.6522L43.2039 33.8167C42.6805 32.7706 41.1902 32.7706 40.6668 33.8167L36.2579 42.6289L34.4926 39.1005C34.3684 38.8611 34.1289 38.7104 33.8539 38.7104H21.3548C20.9644 38.7104 20.6451 39.0295 20.6451 39.4196V40.8381C20.6451 41.2282 20.9644 41.5473 21.3548 41.5473Z" fill="#27323A"/>
<path d="M98.768 70.8579C94.928 70.8579 92.224 69.7219 90.656 67.4499C89.088 65.1459 88.304 61.9779 88.304 57.9459V44.2179C88.304 39.9619 89.072 36.7299 90.608 34.5219C92.144 32.3139 94.864 31.2099 98.768 31.2099C102.256 31.2099 104.752 32.1539 106.256 34.0419C107.792 35.9299 108.56 38.7139 108.56 42.3939V45.4659H103.424V42.7299C103.424 40.9379 103.344 39.5619 103.184 38.6019C103.024 37.6419 102.608 36.8739 101.936 36.2979C101.296 35.7219 100.256 35.4339 98.816 35.4339C97.344 35.4339 96.24 35.7539 95.504 36.3939C94.8 37.0019 94.336 37.8659 94.112 38.9859C93.888 40.0739 93.776 41.5459 93.776 43.4019V58.8099C93.776 60.7939 93.936 62.3459 94.256 63.4659C94.576 64.5859 95.088 65.3859 95.792 65.8659C96.528 66.3459 97.536 66.5859 98.816 66.5859C100.192 66.5859 101.216 66.2819 101.888 65.6739C102.56 65.0659 102.976 64.2339 103.136 63.1779C103.328 62.1219 103.424 60.6819 103.424 58.8579V55.9779H108.56V58.8579C108.56 62.7299 107.824 65.7059 106.352 67.7859C104.912 69.8339 102.384 70.8579 98.768 70.8579ZM120.927 70.8099C117.983 70.8099 115.887 69.9459 114.639 68.2179C113.423 66.4579 112.815 63.9139 112.815 60.5859V52.5219C112.815 49.1939 113.423 46.6659 114.639 44.9379C115.887 43.1779 117.983 42.2979 120.927 42.2979C123.839 42.2979 125.903 43.1779 127.119 44.9379C128.367 46.6659 128.991 49.1939 128.991 52.5219V60.5859C128.991 63.9139 128.367 66.4579 127.119 68.2179C125.903 69.9459 123.839 70.8099 120.927 70.8099ZM120.927 67.0179C121.855 67.0179 122.527 66.7459 122.943 66.2019C123.359 65.6579 123.615 64.9859 123.711 64.1859C123.807 63.3859 123.855 62.2979 123.855 60.9219V52.2339C123.855 50.8579 123.807 49.7699 123.711 48.9699C123.615 48.1379 123.359 47.4499 122.943 46.9059C122.527 46.3619 121.855 46.0899 120.927 46.0899C119.999 46.0899 119.311 46.3619 118.863 46.9059C118.447 47.4499 118.191 48.1379 118.095 48.9699C117.999 49.7699 117.951 50.8579 117.951 52.2339V60.9219C117.951 62.2979 117.999 63.3859 118.095 64.1859C118.191 64.9859 118.447 65.6579 118.863 66.2019C119.311 66.7459 119.999 67.0179 120.927 67.0179ZM133.686 42.6819H138.822V45.4179C141.03 43.3379 143.286 42.2979 145.59 42.2979C147.094 42.2979 148.166 42.8419 148.806 43.9299C149.446 45.0179 149.766 46.3619 149.766 47.9619V70.4259H144.63V49.4499C144.63 48.3939 144.47 47.6099 144.15 47.0979C143.83 46.5859 143.254 46.3299 142.422 46.3299C141.398 46.3299 140.198 46.9059 138.822 48.0579V70.4259H133.686V42.6819ZM162.172 70.8099C158.172 70.8099 156.172 68.6019 156.172 64.1859V46.0899H153.244V42.6819H156.172V34.5699H161.308V42.6819H165.772V46.0899H161.308V63.8499C161.308 64.9699 161.484 65.7539 161.836 66.2019C162.188 66.6499 162.86 66.8739 163.852 66.8739C164.492 66.8739 165.116 66.8259 165.724 66.7299V70.5219C164.444 70.7139 163.26 70.8099 162.172 70.8099ZM169.689 42.6819H174.825V46.6179C175.785 45.0499 176.761 43.9459 177.753 43.3059C178.777 42.6659 179.849 42.3459 180.969 42.3459C181.257 42.3459 181.529 42.3619 181.785 42.3939V48.0579C180.761 47.6739 179.817 47.4819 178.953 47.4819C178.121 47.4819 177.369 47.6899 176.697 48.1059C176.057 48.4899 175.433 49.1779 174.825 50.1699V70.4259H169.689V42.6819ZM192.599 70.8099C189.655 70.8099 187.559 69.9459 186.311 68.2179C185.095 66.4579 184.487 63.9139 184.487 60.5859V52.5219C184.487 49.1939 185.095 46.6659 186.311 44.9379C187.559 43.1779 189.655 42.2979 192.599 42.2979C195.511 42.2979 197.575 43.1779 198.791 44.9379C200.039 46.6659 200.663 49.1939 200.663 52.5219V60.5859C200.663 63.9139 200.039 66.4579 198.791 68.2179C197.575 69.9459 195.511 70.8099 192.599 70.8099ZM192.599 67.0179C193.527 67.0179 194.199 66.7459 194.615 66.2019C195.031 65.6579 195.287 64.9859 195.383 64.1859C195.479 63.3859 195.527 62.2979 195.527 60.9219V52.2339C195.527 50.8579 195.479 49.7699 195.383 48.9699C195.287 48.1379 195.031 47.4499 194.615 46.9059C194.199 46.3619 193.527 46.0899 192.599 46.0899C191.671 46.0899 190.983 46.3619 190.535 46.9059C190.119 47.4499 189.863 48.1379 189.767 48.9699C189.671 49.7699 189.623 50.8579 189.623 52.2339V60.9219C189.623 62.2979 189.671 63.3859 189.767 64.1859C189.863 64.9859 190.119 65.6579 190.535 66.2019C190.983 66.7459 191.671 67.0179 192.599 67.0179ZM205.838 31.5459H210.974V70.4259H205.838V31.5459Z" fill="#27323A"/>
<path d="M91.134 12.42H93.168V25.542H96.894V27H91.134V12.42ZM99.9983 27.144C99.6023 27.144 99.2423 27.03 98.9183 26.802C98.6063 26.574 98.3603 26.274 98.1803 25.902C98.0003 25.53 97.9103 25.14 97.9103 24.732C97.9103 23.916 98.0843 23.256 98.4323 22.752C98.7803 22.236 99.2243 21.828 99.7643 21.528C100.304 21.228 101.054 20.886 102.014 20.502V19.764C102.014 19.08 101.942 18.6 101.798 18.324C101.666 18.036 101.39 17.892 100.97 17.892C100.238 17.892 99.8723 18.384 99.8723 19.368V19.89L97.9643 19.818C97.9883 18.666 98.2523 17.82 98.7563 17.28C99.2603 16.728 100.04 16.452 101.096 16.452C102.092 16.452 102.812 16.728 103.256 17.28C103.712 17.82 103.94 18.642 103.94 19.746V24.498C103.94 25.278 104 26.112 104.12 27H102.356C102.224 26.316 102.14 25.806 102.104 25.47C101.96 25.938 101.708 26.334 101.348 26.658C101 26.982 100.55 27.144 99.9983 27.144ZM100.754 25.488C101.006 25.488 101.252 25.392 101.492 25.2C101.732 24.996 101.906 24.804 102.014 24.624V21.672C101.498 21.96 101.096 22.212 100.808 22.428C100.532 22.632 100.298 22.872 100.106 23.148C99.9263 23.424 99.8363 23.754 99.8363 24.138C99.8363 24.57 99.9143 24.906 100.07 25.146C100.226 25.374 100.454 25.488 100.754 25.488ZM105.844 16.596H107.77V18.072C108.13 17.484 108.496 17.07 108.868 16.83C109.252 16.59 109.654 16.47 110.074 16.47C110.182 16.47 110.284 16.476 110.38 16.488V18.612C109.996 18.468 109.642 18.396 109.318 18.396C109.006 18.396 108.724 18.474 108.472 18.63C108.232 18.774 107.998 19.032 107.77 19.404V27H105.844V16.596ZM113.446 27.144C113.05 27.144 112.69 27.03 112.366 26.802C112.054 26.574 111.808 26.274 111.628 25.902C111.448 25.53 111.358 25.14 111.358 24.732C111.358 23.916 111.532 23.256 111.88 22.752C112.228 22.236 112.672 21.828 113.212 21.528C113.752 21.228 114.502 20.886 115.462 20.502V19.764C115.462 19.08 115.39 18.6 115.246 18.324C115.114 18.036 114.838 17.892 114.418 17.892C113.686 17.892 113.32 18.384 113.32 19.368V19.89L111.412 19.818C111.436 18.666 111.7 17.82 112.204 17.28C112.708 16.728 113.488 16.452 114.544 16.452C115.54 16.452 116.26 16.728 116.704 17.28C117.16 17.82 117.388 18.642 117.388 19.746V24.498C117.388 25.278 117.448 26.112 117.568 27H115.804C115.672 26.316 115.588 25.806 115.552 25.47C115.408 25.938 115.156 26.334 114.796 26.658C114.448 26.982 113.998 27.144 113.446 27.144ZM114.202 25.488C114.454 25.488 114.7 25.392 114.94 25.2C115.18 24.996 115.354 24.804 115.462 24.624V21.672C114.946 21.96 114.544 22.212 114.256 22.428C113.98 22.632 113.746 22.872 113.554 23.148C113.374 23.424 113.284 23.754 113.284 24.138C113.284 24.57 113.362 24.906 113.518 25.146C113.674 25.374 113.902 25.488 114.202 25.488ZM118.536 16.596H120.48L121.758 24.966L123.054 16.596H124.926L122.946 27H120.588L118.536 16.596ZM129.043 27.144C128.239 27.144 127.615 26.994 127.171 26.694C126.727 26.382 126.415 25.926 126.235 25.326C126.055 24.726 125.965 23.946 125.965 22.986V20.61C125.965 19.17 126.187 18.12 126.631 17.46C127.087 16.788 127.891 16.452 129.043 16.452C129.883 16.452 130.513 16.626 130.933 16.974C131.365 17.322 131.647 17.814 131.779 18.45C131.923 19.074 131.995 19.92 131.995 20.988V21.834H127.891V23.922C127.891 24.558 127.981 25.02 128.161 25.308C128.353 25.584 128.653 25.722 129.061 25.722C129.469 25.722 129.745 25.584 129.889 25.308C130.033 25.02 130.105 24.588 130.105 24.012V23.382H131.977V23.778C131.977 24.87 131.743 25.704 131.275 26.28C130.807 26.856 130.063 27.144 129.043 27.144ZM130.105 20.79V19.854C130.105 19.146 130.033 18.642 129.889 18.342C129.757 18.03 129.469 17.874 129.025 17.874C128.713 17.874 128.473 17.946 128.305 18.09C128.149 18.234 128.041 18.474 127.981 18.81C127.921 19.134 127.891 19.608 127.891 20.232V20.79H130.105ZM133.92 12.42H135.846V27H133.92V12.42Z" fill="#FD747B"/>
</svg>
